<?xml version="1.0" encoding="UTF-8"?>
<svg width="700pt" height="700pt" version="1.1" viewBox="0 0 700 700" xmlns="http://www.w3.org/2000/svg" xmlns:xlink="http://www.w3.org/1999/xlink">
 <defs>
  <symbol id="v" overflow="visible">
   <path d="m26.047-1.25c-1.3359 0.5625-2.7305 0.98438-4.1875 1.2656-1.4609 0.28125-2.9805 0.42188-4.5625 0.42188-4.7188 0-8.4609-1.0508-11.219-3.1562-2.7617-2.1133-4.1406-4.9766-4.1406-8.5938 0-3.625 1.3789-6.4922 4.1406-8.6094 2.7578-2.1133 6.5-3.1719 11.219-3.1719 1.582 0 3.1016 0.14844 4.5625 0.4375 1.457 0.28125 2.8516 0.69922 4.1875 1.25v4.7031c-1.3555-0.73828-2.6875-1.2812-4-1.625s-2.6992-0.51562-4.1562-0.51562c-2.6172 0-4.668 0.66797-6.1562 2-1.4922 1.3359-2.2344 3.1797-2.2344 5.5312 0 2.3359 0.74219 4.1719 2.2344 5.5156 1.4883 1.3359 3.5391 2 6.1562 2 1.457 0 2.8438-0.17188 4.1562-0.51562s2.6445-0.88281 4-1.625z"/>
  </symbol>
  <symbol id="d" overflow="visible">
   <path d="m19.062-12.375c-0.59375-0.22656-1.1875-0.39453-1.7812-0.5-0.58594-0.10156-1.1719-0.15625-1.7656-0.15625-1.75 0-3.1016 0.44922-4.0469 1.3438-0.9375 0.89844-1.4062 2.1797-1.4062 3.8438v7.8438h-6.7969v-17.016h6.7969v2.7969c0.875-1.1133 1.8789-1.9258 3.0156-2.4375 1.1328-0.50781 2.4883-0.76562 4.0625-0.76562 0.22656 0 0.47266 0.011719 0.73438 0.03125 0.26953 0.011719 0.66016 0.042969 1.1719 0.09375z"/>
  </symbol>
  <symbol id="a" overflow="visible">
   <path d="m24.5-8.5469v1.5469h-15.891c0.15625 1.2734 0.72656 2.2305 1.7188 2.875 0.98828 0.63672 2.3672 0.95312 4.1406 0.95312 1.4258 0 2.8906-0.16406 4.3906-0.5 1.5-0.34375 3.0391-0.85938 4.625-1.5469v4.1875c-1.6055 0.49219-3.2148 0.85547-4.8281 1.0938-1.6055 0.25-3.2109 0.375-4.8125 0.375-3.8438 0-6.8359-0.78125-8.9688-2.3438-2.1367-1.5625-3.2031-3.7539-3.2031-6.5781 0-2.7812 1.0469-4.9609 3.1406-6.5469 2.0938-1.5938 4.9766-2.3906 8.6562-2.3906 3.3438 0 6.0156 0.80859 8.0156 2.4219 2.0078 1.6055 3.0156 3.7578 3.0156 6.4531zm-6.9844-1.8125c0-1.0312-0.38281-1.8633-1.1406-2.5-0.75-0.63281-1.7344-0.95312-2.9531-0.95312-1.3125 0-2.3828 0.29688-3.2031 0.89062-0.82422 0.59375-1.3398 1.4492-1.5469 2.5625z"/>
  </symbol>
  <symbol id="f" overflow="visible">
   <path d="m12.797-7.6562c-1.418 0-2.4844 0.19531-3.2031 0.57812-0.71094 0.38672-1.0625 0.95312-1.0625 1.7031 0 0.6875 0.28516 1.2305 0.85938 1.625 0.57031 0.38672 1.375 0.57812 2.4062 0.57812 1.2695 0 2.3438-0.36328 3.2188-1.0938 0.875-0.73828 1.3125-1.6602 1.3125-2.7656v-0.625zm10.391-2.0469v9.7031h-6.8594v-2.5156c-0.90625 1.0312-1.9336 1.7812-3.0781 2.25-1.1367 0.46875-2.5234 0.70312-4.1562 0.70312-2.1992 0-3.9844-0.50781-5.3594-1.5312-1.375-1.0312-2.0625-2.3672-2.0625-4.0156 0-1.9883 0.85156-3.4453 2.5625-4.375 1.7188-0.9375 4.4141-1.4062 8.0938-1.4062h4v-0.42188c0-0.86328-0.42969-1.4922-1.2812-1.8906-0.84375-0.40625-2.1641-0.60938-3.9531-0.60938-1.4609 0-2.8203 0.12109-4.0781 0.35938-1.25 0.23047-2.4141 0.57812-3.4844 1.0469v-4.1562c1.457-0.28125 2.9219-0.49219 4.3906-0.64062 1.4688-0.14453 2.9375-0.21875 4.4062-0.21875 3.832 0 6.5977 0.60547 8.2969 1.8125 1.707 1.2109 2.5625 3.1797 2.5625 5.9062z"/>
  </symbol>
  <symbol id="c" overflow="visible">
   <path d="m10.688-21.844v4.8281h7.0156v3.8906h-7.0156v7.2188c0 0.79297 0.19531 1.3281 0.59375 1.6094 0.39453 0.27344 1.1719 0.40625 2.3281 0.40625h3.5v3.8906h-5.8281c-2.6875 0-4.5938-0.44531-5.7188-1.3438-1.1172-0.89453-1.6719-2.4141-1.6719-4.5625v-7.2188h-3.375v-3.8906h3.375v-4.8281z"/>
  </symbol>
  <symbol id="k" overflow="visible">
   <path d="m17.734-14.516v-9.125h6.8438v23.641h-6.8438v-2.4531c-0.9375 1-1.9688 1.7344-3.0938 2.2031-1.125 0.45703-2.4297 0.6875-3.9062 0.6875-2.625 0-4.7812-0.83203-6.4688-2.5-1.6797-1.6641-2.5156-3.8047-2.5156-6.4219 0-2.625 0.83594-4.7695 2.5156-6.4375 1.6875-1.6641 3.8438-2.5 6.4688-2.5 1.4688 0 2.7656 0.23438 3.8906 0.70312 1.1328 0.46875 2.1719 1.2031 3.1094 2.2031zm-4.4844 11c1.457 0 2.5664-0.42188 3.3281-1.2656 0.76953-0.85156 1.1562-2.0859 1.1562-3.7031 0-1.625-0.38672-2.8594-1.1562-3.7031-0.76172-0.85156-1.8711-1.2812-3.3281-1.2812-1.4375 0-2.543 0.42969-3.3125 1.2812-0.76172 0.84375-1.1406 2.0781-1.1406 3.7031 0 1.6172 0.37891 2.8516 1.1406 3.7031 0.76953 0.84375 1.875 1.2656 3.3125 1.2656z"/>
  </symbol>
  <symbol id="j" overflow="visible">
   <path d="m14.578-3.5156c1.457 0 2.5664-0.42188 3.3281-1.2656 0.76953-0.85156 1.1562-2.0859 1.1562-3.7031 0-1.625-0.38672-2.8594-1.1562-3.7031-0.76172-0.85156-1.8711-1.2812-3.3281-1.2812-1.4492 0-2.5625 0.42969-3.3438 1.2812-0.78125 0.85547-1.1719 2.0898-1.1719 3.7031 0 1.6055 0.39062 2.8359 1.1719 3.6875 0.78125 0.85547 1.8945 1.2812 3.3438 1.2812zm-4.5156-11c0.9375-1 1.9727-1.7344 3.1094-2.2031 1.1445-0.46875 2.457-0.70312 3.9375-0.70312 2.625 0 4.7734 0.83594 6.4531 2.5 1.6875 1.668 2.5312 3.8125 2.5312 6.4375 0 2.6172-0.84375 4.7578-2.5312 6.4219-1.6797 1.668-3.8281 2.5-6.4531 2.5-1.4805 0-2.793-0.23438-3.9375-0.70312-1.1367-0.46875-2.1719-1.1953-3.1094-2.1875v2.4531h-6.7969v-23.641h6.7969z"/>
  </symbol>
  <symbol id="i" overflow="visible">
   <path d="m0.46875-17.016h6.7969l5.7188 11.547 4.8594-11.547h6.8125l-8.9531 18.625c-0.89844 1.8945-1.9453 3.2188-3.1406 3.9688-1.1992 0.75781-2.7773 1.1406-4.7344 1.1406h-3.9375v-3.5781h2.125c1.1562 0 1.9922-0.14844 2.5156-0.4375 0.53125-0.29297 0.94141-0.82031 1.2344-1.5781l0.1875-0.46875z"/>
  </symbol>
  <symbol id="h" overflow="visible">
   <path d="m3.2656-17.016h6.7969v17.016h-6.7969zm0-6.625h6.7969v4.4375h-6.7969z"/>
  </symbol>
  <symbol id="e" overflow="visible">
   <path d="m20.453-16.484v4.4375c-0.92969-0.50781-1.8555-0.88281-2.7812-1.125-0.92969-0.23828-1.8906-0.35938-2.8906-0.35938-1.9062 0-3.3906 0.44531-4.4531 1.3281-1.0547 0.88672-1.5781 2.125-1.5781 3.7188 0 1.5859 0.52344 2.8203 1.5781 3.7031 1.0625 0.88672 2.5469 1.3281 4.4531 1.3281 1.0625 0 2.0664-0.125 3.0156-0.375 0.95703-0.25 1.8438-0.625 2.6562-1.125v4.4531c-1.0625 0.3125-2.1406 0.54688-3.2344 0.70312s-2.1953 0.23438-3.2969 0.23438c-3.8359 0-6.8359-0.78516-9-2.3594-2.168-1.5703-3.25-3.7578-3.25-6.5625 0-2.8125 1.082-5.0039 3.25-6.5781 2.1641-1.5703 5.1641-2.3594 9-2.3594 1.1133 0 2.2109 0.078125 3.2969 0.23438 1.082 0.15625 2.1602 0.39062 3.2344 0.70312z"/>
  </symbol>
  <symbol id="b" overflow="visible">
   <path d="m13.391-13.531c-1.5117 0-2.6641 0.43359-3.4531 1.2969-0.79297 0.86719-1.1875 2.1172-1.1875 3.75 0 1.625 0.39453 2.8711 1.1875 3.7344 0.78906 0.86719 1.9414 1.2969 3.4531 1.2969 1.4766 0 2.6094-0.42969 3.3906-1.2969 0.78906-0.86328 1.1875-2.1094 1.1875-3.7344 0-1.6328-0.39844-2.8828-1.1875-3.75-0.78125-0.86328-1.9141-1.2969-3.3906-1.2969zm0-3.8906c3.6562 0 6.5078 0.79297 8.5625 2.375 2.0625 1.5742 3.0938 3.7617 3.0938 6.5625 0 2.793-1.0312 4.9805-3.0938 6.5625-2.0547 1.5742-4.9062 2.3594-8.5625 2.3594-3.6797 0-6.5547-0.78516-8.625-2.3594-2.0625-1.582-3.0938-3.7695-3.0938-6.5625 0-2.8008 1.0312-4.9883 3.0938-6.5625 2.0703-1.582 4.9453-2.375 8.625-2.375z"/>
  </symbol>
  <symbol id="g" overflow="visible">
   <path d="m24.656-10.359v10.359h-6.8438v-7.9219c0-1.4688-0.042969-2.4766-0.125-3.0312-0.085938-0.5625-0.22656-0.97656-0.42188-1.25-0.27344-0.35156-0.63672-0.62891-1.0938-0.82812-0.44922-0.19531-0.96484-0.29688-1.5469-0.29688-1.418 0-2.5312 0.44531-3.3438 1.3281-0.8125 0.875-1.2188 2.0859-1.2188 3.625v8.375h-6.7969v-17.016h6.7969v2.5c1.0312-1 2.1172-1.7344 3.2656-2.2031 1.1562-0.46875 2.4258-0.70312 3.8125-0.70312 2.457 0 4.3203 0.60547 5.5938 1.8125 1.2812 1.1992 1.9219 2.9492 1.9219 5.25z"/>
  </symbol>
  <symbol id="u" overflow="visible">
   <path d="m10.062-2.4531v8.9219h-6.7969v-23.484h6.7969v2.5c0.9375-1 1.9727-1.7344 3.1094-2.2031 1.1445-0.46875 2.457-0.70312 3.9375-0.70312 2.625 0 4.7734 0.83594 6.4531 2.5 1.6875 1.668 2.5312 3.8125 2.5312 6.4375 0 2.6172-0.84375 4.7578-2.5312 6.4219-1.6797 1.668-3.8281 2.5-6.4531 2.5-1.4805 0-2.793-0.23438-3.9375-0.70312-1.1367-0.46875-2.1719-1.1953-3.1094-2.1875zm4.5156-11.016c-1.4492 0-2.5625 0.42969-3.3438 1.2812-0.78125 0.85547-1.1719 2.0898-1.1719 3.7031 0 1.6055 0.39062 2.8359 1.1719 3.6875 0.78125 0.85547 1.8945 1.2812 3.3438 1.2812 1.457 0 2.5664-0.42188 3.3281-1.2656 0.76953-0.85156 1.1562-2.0859 1.1562-3.7031 0-1.625-0.38672-2.8594-1.1562-3.7031-0.76172-0.85156-1.8711-1.2812-3.3281-1.2812z"/>
  </symbol>
  <symbol id="t" overflow="visible">
   <path d="m3.2656-23.641h6.7969v12.875l7.8281-6.25h7.8906l-10.375 7.8125 11.203 9.2031h-8.25l-8.2969-7.0938v7.0938h-6.7969z"/>
  </symbol>
  <symbol id="s" overflow="visible">
   <path d="m19.875-16.484v4.1406c-1.4492-0.48828-2.8516-0.85156-4.2031-1.0938-1.3555-0.25-2.6367-0.375-3.8438-0.375-1.293 0-2.25 0.13281-2.875 0.39062-0.625 0.26172-0.9375 0.65625-0.9375 1.1875 0 0.4375 0.23438 0.77734 0.70312 1.0156 0.47656 0.23047 1.332 0.40234 2.5625 0.51562l1.1875 0.125c3.4883 0.35547 5.832 0.9375 7.0312 1.75 1.207 0.8125 1.8125 2.0859 1.8125 3.8125 0 1.8125-0.83984 3.1797-2.5156 4.0938-1.668 0.90625-4.1641 1.3594-7.4844 1.3594-1.4062 0-2.8594-0.089844-4.3594-0.26562-1.5-0.17578-3.043-0.44141-4.625-0.79688v-4.125c1.3633 0.52344 2.7539 0.91797 4.1719 1.1875 1.4258 0.26172 2.875 0.39062 4.3438 0.39062 1.332 0 2.332-0.14453 3-0.4375 0.66406-0.30078 1-0.73828 1-1.3125 0-0.48828-0.23047-0.84766-0.6875-1.0781-0.46094-0.23828-1.3828-0.42578-2.7656-0.5625l-1.1875-0.125c-3.0312-0.30078-5.1562-0.85938-6.375-1.6719-1.2109-0.82031-1.8125-2.0703-1.8125-3.75 0-1.8008 0.76953-3.1328 2.3125-4 1.5391-0.875 3.9102-1.3125 7.1094-1.3125 1.25 0 2.5625 0.078125 3.9375 0.23438 1.3828 0.14844 2.8828 0.38281 4.5 0.70312z"/>
  </symbol>
  <symbol id="r" overflow="visible">
   <path d="m17.266-23.641v3.5781h-3.7656c-0.96094 0-1.6328 0.14062-2.0156 0.42188-0.375 0.27344-0.5625 0.75-0.5625 1.4375v1.1875h5.8125v3.8906h-5.8125v13.125h-6.7969v-13.125h-3.3906v-3.8906h3.3906v-1.1875c0-1.8516 0.64453-3.2227 1.9375-4.1094 1.2891-0.88281 3.2891-1.3281 6-1.3281z"/>
  </symbol>
  <symbol id="q" overflow="visible">
   <path d="m22.984-14.188c0.85156-1.0508 1.8672-1.8516 3.0469-2.4062 1.1875-0.55078 2.4922-0.82812 3.9219-0.82812 2.4375 0 4.2969 0.60547 5.5781 1.8125 1.2812 1.1992 1.9219 2.9492 1.9219 5.25v10.359h-6.8438v-8.875c0.007813-0.125 0.019531-0.25781 0.03125-0.40625 0.007813-0.14453 0.015625-0.34766 0.015625-0.60938 0-1.207-0.22656-2.082-0.67188-2.625-0.44922-0.53906-1.1641-0.8125-2.1406-0.8125-1.293 0-2.293 0.42969-3 1.2812-0.69922 0.85547-1.0625 2.0859-1.0938 3.6875v8.3594h-6.8281v-8.875c0-1.8828-0.20312-3.0977-0.60938-3.6406-0.40625-0.53906-1.1328-0.8125-2.1719-0.8125-1.3047 0-2.3086 0.43359-3.0156 1.2969-0.71094 0.85547-1.0625 2.0742-1.0625 3.6562v8.375h-6.8281v-17.016h6.8281v2.5c0.83203-0.96875 1.7891-1.6914 2.875-2.1719 1.082-0.48828 2.2734-0.73438 3.5781-0.73438 1.4688 0 2.7656 0.28906 3.8906 0.85938 1.1328 0.5625 1.9922 1.3555 2.5781 2.375z"/>
  </symbol>
  <symbol id="p" overflow="visible">
   <path d="m24.656-10.359v10.359h-6.8438v-7.9062c0-1.4766-0.042969-2.4922-0.125-3.0469-0.085938-0.5625-0.22656-0.97656-0.42188-1.25-0.27344-0.35156-0.63672-0.62891-1.0938-0.82812-0.44922-0.19531-0.96484-0.29688-1.5469-0.29688-1.418 0-2.5312 0.44531-3.3438 1.3281-0.8125 0.875-1.2188 2.0859-1.2188 3.625v8.375h-6.7969v-23.641h6.7969v9.125c1.0312-1 2.1172-1.7344 3.2656-2.2031 1.1562-0.46875 2.4258-0.70312 3.8125-0.70312 2.457 0 4.3203 0.60547 5.5938 1.8125 1.2812 1.1992 1.9219 2.9492 1.9219 5.25z"/>
  </symbol>
  <symbol id="o" overflow="visible">
   <path d="m3.5625-22.672h8.1719l10.312 15.547v-15.547h6.9375v22.672h-8.1719l-10.312-15.562v15.562h-6.9375z"/>
  </symbol>
  <symbol id="n" overflow="visible">
   <path d="m3.0312-6.625v-10.391h6.8438v1.7031c0 0.92969-0.007812 2.0898-0.015625 3.4844-0.011719 1.3867-0.015625 2.3125-0.015625 2.7812 0 1.3672 0.039062 2.3516 0.125 2.9531 0.09375 0.60547 0.24219 1.043 0.45312 1.3125 0.28125 0.35547 0.64453 0.63281 1.0938 0.82812 0.44531 0.1875 0.96094 0.28125 1.5469 0.28125 1.4141 0 2.5312-0.42969 3.3438-1.2969 0.8125-0.875 1.2188-2.0859 1.2188-3.6406v-8.4062h6.7969v17.016h-6.7969v-2.4531c-1.0312 0.99219-2.1211 1.7188-3.2656 2.1875-1.1484 0.46875-2.4062 0.70312-3.7812 0.70312-2.4609 0-4.3359-0.59766-5.625-1.7969-1.2812-1.207-1.9219-2.9609-1.9219-5.2656z"/>
  </symbol>
  <symbol id="m" overflow="visible">
   <path d="m3.5625-22.672h12.141c3.6016 0 6.3672 0.64062 8.2969 1.9219 1.9375 1.2812 2.9062 3.1055 2.9062 5.4688 0 2.375-0.96875 4.2031-2.9062 5.4844-1.9297 1.2812-4.6953 1.9219-8.2969 1.9219h-4.8281v7.875h-7.3125zm7.3125 4.2344v6.3281h4.0469c1.4141 0 2.5078-0.27344 3.2812-0.82812 0.78125-0.55078 1.1719-1.332 1.1719-2.3438 0-1.0078-0.39062-1.7852-1.1719-2.3281-0.77344-0.55078-1.8672-0.82812-3.2812-0.82812z"/>
  </symbol>
  <symbol id="l" overflow="visible">
   <path d="m3.2656-17.016h6.7969v16.719c0 2.2695-0.68359 4.0039-2.0469 5.2031-1.3672 1.207-3.3516 1.8125-5.9531 1.8125h-3.3594v-3.5781h1.1875c1.2891 0 2.1758-0.23438 2.6562-0.70312 0.47656-0.46094 0.71875-1.3711 0.71875-2.7344zm0-6.625h6.7969v4.4375h-6.7969z"/>
  </symbol>
 </defs>
 <g>
  <path d="m558.83 289.64c-41.223-28.828-95.535-55.793-162.94-80.891-67.41-25.094-128.21-41.066-182.39-47.91-50.555-6.2227-81.535-2.6953-92.945 10.578-0.51953 0.62109-1.1641 1.5547-1.9453 2.8008-0.51562 1.0352-1.1641 2.2812-1.9414 3.7344l-0.39062 1.2422c-1.4102 6.3906 0.92578 13.961 7 22.711 8.0391 10.992 22.688 23.957 43.945 38.891 41.223 28.828 95.535 55.793 162.95 80.887 67.406 25.098 128.2 41.066 182.39 47.914 27.742 3.3164 49.52 3.9375 65.336 1.8633 11.723-1.9102 20.277-5.3359 25.664-10.266l0.77734-0.93359 0.39062-0.30859c1.0352-1.2461 1.8125-2.3867 2.332-3.4219 0.77734-1.2461 1.2969-2.2852 1.5547-3.1133 5.1875-15.555-11.406-36.816-49.777-63.777m-194.44-45.734c4.6641-2.6953 10.367-4.043 17.109-4.043 4.4062-0.41406 9.4648 0 15.168 1.2422 6.2227 1.2461 11.926 2.9062 17.109 4.9805 5.4453 2.0742 10.5 4.3555 15.168 6.8438 6.4805 3.3164 11.664 6.5312 15.555 9.6445 3.6289 2.9023 6.6094 6.2227 8.9453 9.957 1.8125 3.7305 3.1094 7.1523 3.8867 10.266-1.0352 2.4883-1.5547 5.1836-1.5547 8.0898l27.613 9.9531-4.2812 8.4023-27.609-10.27c-1.5547 2.0742-3.2422 3.9414-5.0547 5.6016-2.3359 2.0742-4.668 3.9414-7 5.6016-3.3711 1.2422-6.8711 2.6953-10.5 4.3555-4.1484 1.2422-8.4258 2.5898-12.836 4.043l-20.609-18.355c3.6289-1.6602 7.2578-2.9023 10.891-3.7344 2.5898-1.2422 4.793-2.3828 6.6094-3.4219 1.2969-1.4531 2.4648-2.5938 3.5-3.4219 0.77734-0.82812 1.8164-1.6602 3.1094-2.4883l-38.109-13.379c-3.8906 3.1133-8.0352 5.9102-12.445 8.4023-4.4062 2.2812-9.332 3.9375-14.777 4.9766-3.8867 0-7.6484-0.20703-11.277-0.62109-3.3711-0.41797-6.8711-0.72656-10.5-0.93359-3.1094-1.0391-5.832-1.8672-8.168-2.4922-3.1094-1.0352-4.7969-1.6562-5.0547-1.8633-20.742-7.2617-34.609-15.867-41.609-25.824-3.1133-4.1484-4.5391-7.9844-4.2773-11.512 0-3.1094 0.25781-6.0156 0.77734-8.7109l-31.113-11.199 4.668-8.3984 32.668 11.199c1.293-2.2812 2.9805-4.0469 5.0547-5.2891 2.332-1.2461 5.0547-2.4883 8.1641-3.7344 2.5938-1.8672 5.4453-3.0078 8.5586-3.4219 3.8867-0.82812 8.0352-1.6602 12.441-2.4883l21.391 18.977c-3.8906 0.41406-6.6094 1.1406-8.168 2.1797-2.332 0.20703-3.8867 1.0352-4.6641 2.4883-1.0391 0.41406-2.2031 0.82812-3.5 1.2422-1.5586 1.0391-2.9844 2.1797-4.2773 3.4258l35.387 12.754c4.1484-3.7344 8.6875-6.7422 13.613-9.0234m-49.391 14.934c2.0742 1.6602 4.7969 3.0078 8.168 4.0469 2.0742 0.82812 4.1484 1.4492 6.2227 1.8633 1.8125-0.41406 3.6289-0.62109 5.4414-0.62109 1.0391-0.82812 2.3359-1.4531 3.8906-1.8672 1.0352-1.2422 1.8125-2.1758 2.332-2.8008l-31.109-11.199c0 0.625 0.12891 1.3477 0.38672 2.1797 0 0.82813 0.13281 1.6602 0.39062 2.4883 0.25781 2.0742 1.6836 4.043 4.2773 5.9102m77.391 5.6016c-1.2969 0.41406-2.207 1.2422-2.7227 2.4883l33.055 12.133c0-0.82812 0.12891-1.7617 0.38672-2.8008 0-1.2422-0.25781-2.4883-0.77734-3.7305-1.2969-1.6602-2.8516-3.4258-4.6641-5.2891-2.5938-1.2461-5.5742-2.4922-8.9453-3.7344-2.8516-1.2461-5.0547-1.8672-6.6133-1.8672-2.0742-0.20703-4.0156 0-5.832 0.62109-1.5547 0.41406-2.8516 1.1406-3.8867 2.1797m-285.84-79.957-24.887 43.246c-5.4453 15.555 11.535 36.812 50.941 63.777 42.52 29.66 98.133 57.242 166.84 82.754 68.703 25.719 130.54 41.898 185.5 48.535 51.332 6.8438 82.832 3.7344 94.5-9.3359l24.887-42.93-1.1641 0.92969c-5.4453 5.1875-14.133 8.7148-26.059 10.578-16.332 2.0742-38.629 1.4531-66.887-1.8633-55.223-7.0547-117.19-23.336-185.89-48.848-68.703-25.719-124.05-53.301-166.05-82.754-21.777-15.141-36.812-28.312-45.109-39.512-5.9648-8.918-8.2969-16.594-7-23.023l0.38672-1.5547m-34.223 74.668-4.2773 2.8008-21.387 23.332-13.613 21.156-5.4453 13.688-3.5 14.934-0.77734 8.0898-0.38672 1.5547 0.77734 35.777 0.77734 2.4883c0.77734 6.2227 2.7227 12.859 5.832 19.914l14.777 25.508 1.9453 1.5586v0.62109l0.39062 0.62109 0.38672 0.3125 2.7227 3.7344 5.8359 5.9102 1.5547 1.2422 1.1641 1.5586 8.9453 7.7773 0.77734 0.93359 10.891 7.7773c0.51953 0.62109 1.0352 0.62109 1.5547 0 1.0391-0.41406 1.0391-0.83203 0-1.2461l-21-24.266-4.668-6.8438-0.77734-1.8672-2.332-3.4219-4.2773-9.957-0.77734-0.62109v-0.93359l-1.5547-2.4883-2.3359-8.7109c-1.5547-4.5625-2.5898-10.684-3.1094-18.355l-0.39062-9.6445 0.39062-0.625-0.39062-0.62109 0.39062-1.5547 3.5-23.957 8.9453-24.266 0.38672-2.1758 19.445-54.758 0.77734-4.043c0.25781-0.625 0.12891-1.0391-0.39062-1.2461l-0.77734 0.3125m560.39-134.71-0.77734-0.93359-11.277-8.0898c-0.51953-0.62109-0.91016-0.51953-1.168 0.3125-1.2969 0-1.4258 0.20703-0.39062 0.62109l21.391 24.578 0.77734 1.8672 1.5547 1.2422 9.7227 18.98 0.77734 0.93359v0.62109l3.8906 11.199c1.0352 4.3555 1.9453 10.473 2.7227 18.355l0.38672 12.133-1.1641 9.6445 0.38672 1.5547-11.664 37.645-0.39062 2.1797-19.445 54.754-0.77734 3.7344c-0.51953 0.62109-0.51953 1.0391 0 1.2461l1.168-0.3125 2.7227-1.5547 2.332-2.4883 3.5-2.8008 17.109-19.289 13.223-21.156 0.77734-2.1758 1.5586-2.1797 3.5-9.332 3.5-15.246 0.77734-7.7773 0.38672-1.2461-0.77734-36.086-0.77734-2.8008c-1.0352-6.0156-3.1094-12.547-6.2227-19.602l-4.2773-9.332-10.109-15.867-1.9453-1.8672-0.39062-0.93359-0.38672-0.30859v-0.625l-2.7227-3.4219-6.2227-5.9102-1.5547-1.2461-1.168-1.5547z"/>
  <use y="653.332031" xlink:href="#v"/>
  <use x="28.539063" y="653.332031" xlink:href="#d"/>
  <use x="47.71875" y="653.332031" xlink:href="#a"/>
  <use x="74.09375" y="653.332031" xlink:href="#f"/>
  <use x="100.335938" y="653.332031" xlink:href="#c"/>
  <use x="118.925781" y="653.332031" xlink:href="#a"/>
  <use x="145.300781" y="653.332031" xlink:href="#k"/>
  <use x="186.679688" y="653.332031" xlink:href="#j"/>
  <use x="214.515625" y="653.332031" xlink:href="#i"/>
  <use x="253.40625" y="653.332031" xlink:href="#h"/>
  <use x="266.734375" y="653.332031" xlink:href="#e"/>
  <use x="289.785156" y="653.332031" xlink:href="#b"/>
  <use x="316.503906" y="653.332031" xlink:href="#g"/>
  <use x="344.1875" y="653.332031" xlink:href="#u"/>
  <use x="372.027344" y="653.332031" xlink:href="#f"/>
  <use x="398.269531" y="653.332031" xlink:href="#e"/>
  <use x="421.320313" y="653.332031" xlink:href="#t"/>
  <use x="447.183594" y="653.332031" xlink:href="#s"/>
  <use y="684.445312" xlink:href="#r"/>
  <use x="16.917969" y="684.445312" xlink:href="#d"/>
  <use x="36.097656" y="684.445312" xlink:href="#b"/>
  <use x="62.816406" y="684.445312" xlink:href="#q"/>
  <use x="116.875" y="684.445312" xlink:href="#c"/>
  <use x="135.464844" y="684.445312" xlink:href="#p"/>
  <use x="163.152344" y="684.445312" xlink:href="#a"/>
  <use x="203.066406" y="684.445312" xlink:href="#o"/>
  <use x="235.613281" y="684.445312" xlink:href="#b"/>
  <use x="262.328125" y="684.445312" xlink:href="#n"/>
  <use x="290.015625" y="684.445312" xlink:href="#g"/>
  <use x="331.238281" y="684.445312" xlink:href="#m"/>
  <use x="359.742188" y="684.445312" xlink:href="#d"/>
  <use x="378.917969" y="684.445312" xlink:href="#b"/>
  <use x="405.636719" y="684.445312" xlink:href="#l"/>
  <use x="418.96875" y="684.445312" xlink:href="#a"/>
  <use x="445.34375" y="684.445312" xlink:href="#e"/>
  <use x="468.394531" y="684.445312" xlink:href="#c"/>
 </g>
</svg>
