<?xml version="1.0" encoding="UTF-8"?>
<svg width="700pt" height="700pt" version="1.1" viewBox="0 0 700 700" xmlns="http://www.w3.org/2000/svg" xmlns:xlink="http://www.w3.org/1999/xlink">

 <g>
  <path d="m428.75 236.25c-0.007812-6.9609-2.7773-13.633-7.6953-18.555-4.9219-4.918-11.594-7.6875-18.555-7.6953h-52.5v92.629l-47.371 47.371h-22.629v-17.5h-140v210h140v-17.5h245v-157.5h35v-70h-131.25zm-166.25 288.75h-105v-175h105zm148.75-17.5h-131.25v-140h29.871l57.629-57.629v-82.371h35c4.832 0.003906 8.7461 3.918 8.75 8.75zm96.25 0h-78.75v-35h78.75zm0-52.5h-78.75v-35h78.75zm0-52.5h-78.75v-35h78.75zm35-87.5v35h-113.75v-35z"/>
  <path d="m462.55 20.156c-14.184-4.7266-26.164-3.1445-33.758 4.4414l-19.188 19.188c-14.465 14.465-6.2148 44.527 19.188 69.93 10.117 10.508 22.48 18.586 36.164 23.629 4.8359 1.6875 9.9102 2.5898 15.031 2.6719 6.9492 0.26953 13.711-2.3008 18.727-7.1172l19.188-19.184c14.465-14.465 6.2148-44.527-19.188-69.93-10.117-10.508-22.48-18.586-36.164-23.629zm23.793 100.37c-2.5508 2.5391-8.6133 2.6328-15.848 0.21484-11.09-4.2148-21.109-10.84-29.328-19.395-19.652-19.645-24.488-39.887-19.191-45.188l1.2969-1.2891 0.066407 0.19141c0.85156 3.1367 1.9414 6.207 3.2539 9.1836 0.074218 0.16797 0.12891 0.33203 0.20312 0.5h0.003906c1.4844 3.3047 3.1836 6.5078 5.0859 9.5898 0.078126 0.12891 0.14063 0.25391 0.22266 0.37891l-0.003907 0.003906c2.1172 3.4023 4.4297 6.6758 6.9297 9.8086l0.14844 0.19922c2.7461 3.4297 5.6836 6.707 8.793 9.8086 2.875 2.875 5.8203 5.4414 8.7812 7.8711 0.72266 0.59375 1.4414 1.168 2.168 1.7344 2.8398 2.2422 5.7969 4.332 8.8594 6.2578 0.19531 0.12109 0.38672 0.21094 0.58203 0.32812v0.003906c2.707 1.6367 5.5 3.1211 8.375 4.4414 0.72266 0.33594 1.4375 0.66406 2.1562 0.96875 2.7617 1.2031 5.6055 2.2148 8.5117 3.0195l0.22266 0.078125zm19.188-19.18c-5.3047 5.2812-25.535 0.46094-45.18-19.184-19.645-19.645-24.484-39.887-19.184-45.184l-0.003906-0.003906c1.8047-1.457 4.1016-2.1602 6.4141-1.9648 3.2188 0.085938 6.4023 0.67578 9.4336 1.7539 11.094 4.2148 21.109 10.84 29.332 19.395 19.648 19.645 24.484 39.887 19.188 45.188z"/>
  <path d="m490 227.5h17.5v35h-17.5z"/>
  <path d="m518.81 265.06 26.25-26.25 12.375 12.375-26.25 26.25z"/>
  <path d="m440.06 251.19 12.375-12.375 26.25 26.25-12.375 12.375z"/>
  <path d="m192.5 385h52.5v-17.5h-70v52.5h17.5z"/>
  <path d="m175 437.5h17.5v17.5h-17.5z"/>
  <path d="m437.5 139.99-17.5 0.007812c0 2.2891 0.32812 56.449 28.812 84.938l12.375-12.375c-23.332-23.328-23.688-72.082-23.688-72.57z"/>
  <use x="70" y="691.25" xlink:href="#m"/>
  <use x="102.109375" y="691.25" xlink:href="#i"/>
  <use x="123.683594" y="691.25" xlink:href="#a"/>
  <use x="153.355469" y="691.25" xlink:href="#c"/>
  <use x="182.878906" y="691.25" xlink:href="#h"/>
  <use x="203.792969" y="691.25" xlink:href="#a"/>
  <use x="233.464844" y="691.25" xlink:href="#g"/>
  <use x="280.011719" y="691.25" xlink:href="#f"/>
  <use x="311.328125" y="691.25" xlink:href="#e"/>
  <use x="355.078125" y="691.25" xlink:href="#d"/>
  <use x="386.589844" y="691.25" xlink:href="#l"/>
  <use x="432.175781" y="691.25" xlink:href="#c"/>
  <use x="461.699219" y="691.25" xlink:href="#b"/>
  <use x="476.695312" y="691.25" xlink:href="#b"/>
  <use x="491.691406" y="691.25" xlink:href="#b"/>
  <use x="506.6875" y="691.25" xlink:href="#k"/>
  <use x="521.683594" y="691.25" xlink:href="#j"/>
  <use x="550.78125" y="691.25" xlink:href="#a"/>
 </g>
</svg>
